<svg width="11" height="19" viewBox="0 0 11 19" fill="none" xmlns="http://www.w3.org/2000/svg">
<path d="M10.45 0.374975C10.7 0.624975 10.825 0.920976 10.825 1.26298C10.825 1.60431 10.7 1.89997 10.45 2.14997L3.12501 9.47497L10.475 16.825C10.7083 17.0583 10.825 17.35 10.825 17.7C10.825 18.05 10.7 18.35 10.45 18.6C10.2 18.85 9.90401 18.975 9.56201 18.975C9.22068 18.975 8.92501 18.85 8.67501 18.6L0.275012 10.175C0.175012 10.075 0.104013 9.96664 0.0620125 9.84997C0.0206792 9.73331 1.2263e-05 9.60831 1.22746e-05 9.47497C1.22863e-05 9.34164 0.0206792 9.21664 0.0620126 9.09997C0.104013 8.98331 0.175012 8.87497 0.275012 8.77497L8.70001 0.349975C8.93335 0.116642 9.22068 -2.49358e-05 9.56201 -2.49059e-05C9.90401 -2.4876e-05 10.2 0.124975 10.45 0.374975Z" fill="black"/>
</svg>
