<svg width="38" height="35" viewBox="0 0 38 35" fill="none" xmlns="http://www.w3.org/2000/svg">
<path d="M6.79782 23.6123L6.79766 23.6121C3.1359 19.2786 1.45751 14.9365 1.50082 10.285C1.55053 5.40935 5.45688 1.5 10.1254 1.5C13.8756 1.5 16.4096 3.67552 17.8063 5.35369L18.9592 6.739L20.1122 5.35369C21.5088 3.67552 24.0428 1.5 27.7931 1.5C32.462 1.5 36.3682 5.4099 36.4176 10.2828C36.4644 14.9362 34.7866 19.2752 31.1212 23.6088L31.1203 23.6099C28.1027 27.1845 24.1711 29.7675 20.5756 32.1296C20.0275 32.4897 19.4873 32.8447 18.9592 33.1972C18.4306 32.8443 17.8897 32.4889 17.341 32.1284C13.7459 29.7666 9.81503 27.1841 6.79782 23.6123Z" stroke="black" stroke-width="3"/>
</svg>
