<svg width="14" height="14" viewBox="0 0 14 14" fill="none" xmlns="http://www.w3.org/2000/svg">
<path d="M9.94411 1.64184C10.1688 1.41719 10.2807 1.3052 10.3927 1.23009C10.6173 1.08007 10.8813 1 11.1514 1C11.4214 1 11.6854 1.08007 11.91 1.23009C12.022 1.3052 12.1339 1.41719 12.3586 1.64184C12.5826 1.86581 12.6945 1.97847 12.7697 2.08977C12.9198 2.31441 13 2.57854 13 2.84874C13 3.11894 12.9198 3.38307 12.7697 3.6077C12.6945 3.719 12.5826 3.83167 12.3586 4.05564L4.96082 11.4534C4.78055 11.6344 4.68974 11.7245 4.58526 11.7962C4.48011 11.8679 4.36335 11.9191 4.12982 12.0215L3.50161 12.2981C2.14552 12.8949 1.46678 13.1933 1.13698 12.8635C0.806488 12.533 1.10488 11.8549 1.70168 10.4981L1.97822 9.86993C2.08065 9.6364 2.13254 9.51964 2.20356 9.41517C2.27594 9.31001 2.36607 9.21988 2.54702 9.03961L9.94411 1.64184Z" stroke="black" stroke-linecap="round"/>
<path d="M8.07095 3.4903L10.4854 5.90478" stroke="black"/>
</svg>
