<svg width="29" height="31" viewBox="0 0 29 31" fill="none" xmlns="http://www.w3.org/2000/svg">
<path d="M23.8611 21.4568C23.2184 21.4565 22.5824 21.5865 21.9914 21.839C21.4004 22.0914 20.8667 22.4611 20.4225 22.9255L9.38815 16.7172C9.60189 15.9145 9.60189 15.0699 9.38815 14.2673L20.4225 8.05895C21.226 8.892 22.3057 9.40351 23.4593 9.49765C24.6129 9.5918 25.7612 9.26211 26.6891 8.57036C27.6171 7.87861 28.261 6.87226 28.5002 5.73984C28.7394 4.60742 28.5575 3.42663 27.9886 2.41868C27.4197 1.41073 26.5029 0.644785 25.4098 0.26433C24.3167 -0.116125 23.1224 -0.0849817 22.0506 0.351926C20.9788 0.788833 20.1031 1.60153 19.5875 2.63775C19.0719 3.67398 18.9518 4.86265 19.2497 5.98106L8.21538 12.1894C7.55626 11.5021 6.7066 11.0278 5.77569 10.8275C4.84479 10.6271 3.87522 10.7098 2.99173 11.065C2.10823 11.4202 1.35121 12.0316 0.818057 12.8206C0.284903 13.6096 0 14.54 0 15.4922C0 16.4445 0.284903 17.3749 0.818057 18.1639C1.35121 18.9529 2.10823 19.5643 2.99173 19.9195C3.87522 20.2747 4.84479 20.3574 5.77569 20.157C6.7066 19.9566 7.55626 19.4823 8.21538 18.7951L19.2497 25.0034C18.9939 25.9666 19.0461 26.9857 19.3989 27.9177C19.7517 28.8497 20.3875 29.6479 21.217 30.2002C22.0466 30.7525 23.0282 31.0312 24.0242 30.9972C25.0202 30.9632 25.9805 30.6182 26.7705 30.0107C27.5604 29.4031 28.1403 28.5635 28.4288 27.6096C28.7173 26.6556 28.6998 25.6354 28.3789 24.6919C28.058 23.7484 27.4497 22.929 26.6395 22.3488C25.8292 21.7686 24.8576 21.4567 23.8611 21.4568Z" fill="black"/>
</svg>
