<svg width="19" height="22" viewBox="0 0 19 22" fill="none" xmlns="http://www.w3.org/2000/svg">
<path d="M2.53828 4.07697L3.49982 19.4616C3.5455 20.3505 4.19213 21 5.03828 21H13.8844C14.734 21 15.3686 20.3505 15.4229 19.4616L16.3844 4.07697" stroke="black" stroke-width="1.5" stroke-linecap="round" stroke-linejoin="round"/>
<path d="M1 4.07697H17.9231Z" fill="black"/>
<path d="M1 4.07697H17.9231" stroke="black" stroke-width="1.5" stroke-miterlimit="10" stroke-linecap="round"/>
<path d="M6.38379 4.07693V2.15385C6.38335 2.0022 6.41289 1.85196 6.47072 1.71177C6.52855 1.57158 6.61352 1.4442 6.72076 1.33697C6.82799 1.22973 6.95537 1.14476 7.09556 1.08693C7.23575 1.0291 7.38599 0.999561 7.53764 1H11.3838C11.5354 0.999561 11.6857 1.0291 11.8259 1.08693C11.9661 1.14476 12.0934 1.22973 12.2007 1.33697C12.3079 1.4442 12.3929 1.57158 12.4507 1.71177C12.5085 1.85196 12.5381 2.0022 12.5376 2.15385V4.07693" stroke="black" stroke-width="1.5" stroke-linecap="round" stroke-linejoin="round"/>
<path d="M9.46036 7.15393V17.9232" stroke="black" stroke-width="1.5" stroke-linecap="round" stroke-linejoin="round"/>
<path d="M5.99942 7.15393L6.38404 17.9232" stroke="black" stroke-width="1.5" stroke-linecap="round" stroke-linejoin="round"/>
<path d="M12.9223 7.15393L12.5377 17.9232" stroke="black" stroke-width="1.5" stroke-linecap="round" stroke-linejoin="round"/>
</svg>
