<svg xmlns="http://www.w3.org/2000/svg" version="1.1" xmlns:xlink="http://www.w3.org/1999/xlink" xmlns:svgjs="http://svgjs.dev/svgjs" width="1000" height="252" viewBox="0 0 1000 252"><g transform="matrix(1,0,0,1,-0.6060606060606233,0.5971915274889881)"><svg viewBox="0 0 396 100" data-background-color="#ffffff" preserveAspectRatio="xMidYMid meet" height="252" width="1000" xmlns="http://www.w3.org/2000/svg" xmlns:xlink="http://www.w3.org/1999/xlink"><g id="tight-bounds" transform="matrix(1,0,0,1,0.2400000000000091,0.14371025140167148)"><svg viewBox="0 0 395.52 99.73823306591905" height="99.73823306591905" width="395.52"><g><svg viewBox="0 0 601.9658613222399 151.79766225294364" height="99.73823306591905" width="395.52"><g transform="matrix(1,0,0,1,0,20.979271700660092)"><svg viewBox="0 0 395.52 109.83911885162345" height="109.83911885162345" width="395.52"><g><svg viewBox="0 0 395.52 109.83911885162345" height="109.83911885162345" width="395.52"><g><svg viewBox="0 0 395.52 77.39577408637875" height="77.39577408637875" width="395.52"><g transform="matrix(1,0,0,1,0,0)"><svg width="395.52" viewBox="3 -29.450000762939453 150.49000549316406 29.450000762939453" height="77.39577408637875" data-palette-color="#022c43"><path d="M26.2 0L9.6 0Q6.2 0 4.6-0.3 3-0.6 3-1L3-1 5-5.35Q6.15-5.15 10.73-4.98 15.3-4.8 23.3-4.8L23.3-4.8 24.25-4.8Q26.4-4.8 27.3-5.58 28.2-6.35 28.2-8.2L28.2-8.2 28.2-9.2Q28.2-10.95 27.48-11.7 26.75-12.45 24.25-12.45L24.25-12.45 12.65-12.45Q7.6-12.45 5.3-14.33 3-16.2 3-20.45L3-20.45 3-21.25Q3-23.45 3.83-25.3 4.65-27.15 6.65-28.28 8.65-29.4 12.15-29.4L12.15-29.4 25.75-29.4Q29.15-29.4 31.25-29.05 33.35-28.7 33.35-28.3L33.35-28.3 32.35-24.1Q31.05-24.25 26.45-24.43 21.85-24.6 14.1-24.6L14.1-24.6 13.55-24.65Q11.25-24.65 10.45-23.73 9.65-22.8 9.6-21.4L9.6-21.4 9.6-20.55Q9.6-18.9 10.53-18.07 11.45-17.25 13.6-17.25L13.6-17.25 24.7-17.25Q27.9-17.25 30.15-16.6 32.4-15.95 33.6-14.23 34.8-12.5 34.8-9.15L34.8-9.15 34.8-8.35Q34.8-4.6 32.88-2.3 30.95 0 26.2 0L26.2 0ZM48.9 0L42.3 0 42.3-25.4 41.8-29.45 63.95-29.45Q67.15-29.45 68.97-28.6 70.8-27.75 71.67-26.38 72.55-25 72.8-23.45 73.05-21.9 73.05-20.5L73.05-20.5 73.05-17.55Q73.05-16.4 72.7-14.98 72.35-13.55 71.4-12.23 70.45-10.9 68.65-10.03 66.85-9.15 63.95-9.15L63.95-9.15 58.85-9.15Q55.7-9.15 52.97-9.3 50.25-9.45 48.9-9.55L48.9-9.55 48.9 0ZM48.9-24.65L48.9-13.95 62.5-13.95Q64.75-13.95 65.6-15.05 66.45-16.15 66.45-17.7L66.45-17.7 66.45-20.85Q66.45-22.45 65.6-23.55 64.75-24.65 62.55-24.65L62.55-24.65 48.9-24.65ZM80.35 0L73.05 0 87.7-29.4 97.55-29.4 112.15 0 104.45 0 101.5-6.35 83.6-6.35 80.35 0ZM92.3-24.9L85.4-11.25 99.65-11.25 92.8-24.9 92.3-24.9ZM123.24 0L116.64 0 116.64-25.4 116.14-29.4 123.74-29.4 135.04-9.4 146.74-29.4 153.49-29.4 153.49 0 146.89 0 146.89-18.65 146.34-18.65 144.39-14.3 138.09-3 132.04-3 125.74-14.3 123.74-18.65 123.24-18.65 123.24 0Z" opacity="1" transform="matrix(1,0,0,1,0,0)" fill="#022c43" class="undefined-text-0" data-fill-palette-color="primary" id="text-0"></path></svg></g></svg></g><g transform="matrix(1,0,0,1,163.310208,95.6670588495947)"><svg viewBox="0 0 232.209792 14.172060002028742" height="14.172060002028742" width="232.209792"><g transform="matrix(1,0,0,1,0,0)"><svg width="232.209792" viewBox="4.5 -35.5 591.4500122070312 36.099998474121094" height="14.172060002028742" data-palette-color="#115173"><path d="M8.7 0L4.5 0 4.5-34.9 26.5-34.9 26.5-31.25 8.7-31.25 8.7-19.5 25-19.5 25-15.85 8.7-15.85 8.7 0ZM55.8 0L34.2 0 34.2-3.35 42.9-3.35 42.9-31.55 34.2-31.55 34.2-34.9 55.8-34.9 55.8-31.55 47.1-31.55 47.1-3.35 55.8-3.35 55.8 0ZM80.05 0L68.15-29.55 67.8-29.55 67.8 0 64 0 64-34.9 69.95-34.9 81.84-5.65 82.2-5.65 82.2-34.9 86-34.9 86 0 80.05 0ZM94.74 0L94.74-34.9 104.49-34.9Q110.89-34.9 114.04-30.5 117.19-26.1 117.19-17.45L117.19-17.45Q117.19-8.8 114.04-4.4 110.89 0 104.49 0L104.49 0 94.74 0ZM98.94-3.65L104.29-3.65Q108.49-3.65 110.62-6.55 112.74-9.45 112.74-14.75L112.74-14.75 112.74-20.15Q112.74-25.45 110.62-28.35 108.49-31.25 104.29-31.25L104.29-31.25 98.94-31.25 98.94-3.65ZM167.09 0L162.89 0 162.89-13.7 150.84-34.9 155.64-34.9 160.64-25.8 164.89-17.85 165.09-17.85 169.44-25.8 174.44-34.9 179.14-34.9 167.09-13.7 167.09 0ZM194.99 0.6L194.99 0.6Q191.79 0.6 189.49-0.63 187.19-1.85 185.69-4.15 184.19-6.45 183.49-9.8 182.79-13.15 182.79-17.45L182.79-17.45Q182.79-21.7 183.49-25.08 184.19-28.45 185.69-30.75 187.19-33.05 189.49-34.27 191.79-35.5 194.99-35.5L194.99-35.5Q198.19-35.5 200.49-34.27 202.79-33.05 204.29-30.75 205.79-28.45 206.49-25.08 207.19-21.7 207.19-17.45L207.19-17.45Q207.19-13.15 206.49-9.8 205.79-6.45 204.29-4.15 202.79-1.85 200.49-0.63 198.19 0.6 194.99 0.6ZM194.99-3.05L194.99-3.05Q197.09-3.05 198.54-3.88 199.99-4.7 200.94-6.2 201.89-7.7 202.31-9.83 202.74-11.95 202.74-14.6L202.74-14.6 202.74-20.3Q202.74-22.9 202.31-25.05 201.89-27.2 200.94-28.7 199.99-30.2 198.54-31.03 197.09-31.85 194.99-31.85L194.99-31.85Q192.89-31.85 191.44-31.03 189.99-30.2 189.04-28.7 188.09-27.2 187.66-25.05 187.24-22.9 187.24-20.3L187.24-20.3 187.24-14.6Q187.24-11.95 187.66-9.83 188.09-7.7 189.04-6.2 189.99-4.7 191.44-3.88 192.89-3.05 194.99-3.05ZM213.98-34.9L218.18-34.9 218.18-13.95Q218.18-11.4 218.33-9.4 218.48-7.4 219.13-5.98 219.78-4.55 221.16-3.8 222.53-3.05 224.98-3.05L224.98-3.05Q227.43-3.05 228.81-3.8 230.18-4.55 230.83-5.98 231.48-7.4 231.63-9.4 231.78-11.4 231.78-13.95L231.78-13.95 231.78-34.9 235.98-34.9 235.98-14.95Q235.98-11.05 235.61-8.15 235.23-5.25 234.06-3.3 232.88-1.35 230.71-0.38 228.53 0.6 224.98 0.6L224.98 0.6Q221.43 0.6 219.26-0.38 217.08-1.35 215.91-3.3 214.73-5.25 214.36-8.15 213.98-11.05 213.98-14.95L213.98-14.95 213.98-34.9ZM248.68-14.9L248.68 0 244.48 0 244.48-34.9 257.18-34.9Q262.03-34.9 264.58-32.25 267.13-29.6 267.13-24.85L267.13-24.85Q267.13-20.6 264.93-18.05 262.73-15.5 258.53-15.1L258.53-15.1 267.43 0 262.73 0 254.23-14.9 248.68-14.9ZM248.68-18.45L257.08-18.45Q259.73-18.45 261.21-19.78 262.68-21.1 262.68-23.55L262.68-23.55 262.68-26.15Q262.68-28.6 261.21-29.93 259.73-31.25 257.08-31.25L257.08-31.25 248.68-31.25 248.68-18.45ZM314.88 0.6L314.88 0.6Q310.18 0.6 307.18-1.13 304.18-2.85 302.23-5.55L302.23-5.55 305.28-8.05Q307.33-5.5 309.6-4.25 311.88-3 315.03-3L315.03-3Q318.83-3 320.83-4.75 322.83-6.5 322.83-9.65L322.83-9.65Q322.83-12.2 321.38-13.63 319.93-15.05 316.33-15.65L316.33-15.65 312.43-16.3Q309.88-16.75 308.15-17.65 306.43-18.55 305.38-19.83 304.33-21.1 303.88-22.63 303.43-24.15 303.43-25.8L303.43-25.8Q303.43-30.6 306.58-33.05 309.73-35.5 315.08-35.5L315.08-35.5Q319.28-35.5 322.15-34.1 325.03-32.7 326.78-30.15L326.78-30.15 323.83-27.6Q322.38-29.5 320.33-30.7 318.28-31.9 315.03-31.9L315.03-31.9Q311.48-31.9 309.58-30.4 307.68-28.9 307.68-25.9L307.68-25.9Q307.68-23.55 309.1-22.08 310.53-20.6 314.23-19.95L314.23-19.95 317.98-19.3Q320.53-18.85 322.28-17.95 324.03-17.05 325.1-15.8 326.18-14.55 326.63-13 327.08-11.45 327.08-9.75L327.08-9.75Q327.08-4.9 323.9-2.15 320.73 0.6 314.88 0.6ZM358.72-31.25L347.07-31.25 347.07 0 342.87 0 342.87-31.25 331.22-31.25 331.22-34.9 358.72-34.9 358.72-31.25ZM363.97-34.9L368.17-34.9 368.17-13.95Q368.17-11.4 368.32-9.4 368.47-7.4 369.12-5.98 369.77-4.55 371.15-3.8 372.52-3.05 374.97-3.05L374.97-3.05Q377.42-3.05 378.8-3.8 380.17-4.55 380.82-5.98 381.47-7.4 381.62-9.4 381.77-11.4 381.77-13.95L381.77-13.95 381.77-34.9 385.97-34.9 385.97-14.95Q385.97-11.05 385.6-8.15 385.22-5.25 384.05-3.3 382.87-1.35 380.7-0.38 378.52 0.6 374.97 0.6L374.97 0.6Q371.42 0.6 369.25-0.38 367.07-1.35 365.9-3.3 364.72-5.25 364.35-8.15 363.97-11.05 363.97-14.95L363.97-14.95 363.97-34.9ZM394.72 0L394.72-34.9 404.47-34.9Q410.87-34.9 414.02-30.5 417.17-26.1 417.17-17.45L417.17-17.45Q417.17-8.8 414.02-4.4 410.87 0 404.47 0L404.47 0 394.72 0ZM398.92-3.65L404.27-3.65Q408.47-3.65 410.59-6.55 412.72-9.45 412.72-14.75L412.72-14.75 412.72-20.15Q412.72-25.45 410.59-28.35 408.47-31.25 404.27-31.25L404.27-31.25 398.92-31.25 398.92-3.65ZM437.07 0L432.87 0 432.87-13.7 420.82-34.9 425.62-34.9 430.62-25.8 434.87-17.85 435.07-17.85 439.42-25.8 444.42-34.9 449.12-34.9 437.07-13.7 437.07 0ZM502.71 0L502.71-17.5 502.71-28.55 502.31-28.55 494.96-10.6 487.61-28.55 487.21-28.55 487.21-17.5 487.21 0 483.36 0 483.36-34.9 488.76-34.9 494.91-19.5 495.21-19.5 501.36-34.9 506.56-34.9 506.56 0 502.71 0ZM538.46 0L534.01 0 531.06-9.95 518.81-9.95 515.86 0 511.51 0 522.21-34.9 527.76-34.9 538.46 0ZM530.06-13.6L525.16-30.45 524.71-30.45 519.81-13.6 530.06-13.6ZM568.7-31.25L557.05-31.25 557.05 0 552.85 0 552.85-31.25 541.2-31.25 541.2-34.9 568.7-34.9 568.7-31.25ZM595.95 0L574.45 0 574.45-34.9 595.95-34.9 595.95-31.25 578.65-31.25 578.65-19.5 595.35-19.5 595.35-15.85 578.65-15.85 578.65-3.65 595.95-3.65 595.95 0Z" opacity="1" transform="matrix(1,0,0,1,0,0)" fill="#115173" class="undefined-text-1" data-fill-palette-color="secondary" id="text-1"></path></svg></g></svg></g></svg></g></svg></g><g transform="matrix(1,0,0,1,413.7912847632159,0)"><svg viewBox="0 0 188.17457655902396 151.79766225294364" height="151.79766225294364" width="188.17457655902396"><g><svg xmlns="http://www.w3.org/2000/svg" data-name="Your Icon" viewBox="5.5157999992370605 23.318315505981445 89.26864624023438 72.01170349121094" x="0" y="0" height="151.79766225294364" width="188.17457655902396" class="icon-icon-0" data-fill-palette-color="accent" id="icon-0"><path class="cls-1" d="M81.61 82V77.83a1.1 1.1 0 0 0-1.1-1.1H78L94.47 59.1a1.1 1.1 0 0 0 0-1.54L74.09 37.95l4.1-4.43A1.1 1.1 0 0 0 78.13 32L76 30l2.12-2.29a1.1 1.1 0 0 0-0.06-1.55l-2.75-2.55a1.06 1.06 0 0 0-0.79-0.29 1.09 1.09 0 0 0-0.76 0.35L71.67 26 70 24.43a1.1 1.1 0 0 0-1.55 0.06l-11.11 12A16.81 16.81 0 0 0 53 35.91 20.92 20.92 0 0 0 37.72 43a1.1 1.1 0 0 0 0.07 1.55l23.58 21.5A1.1 1.1 0 0 0 62.91 66c5.59-6.13 7.1-14.38 4.43-20.76l5.25-5.67L92.13 58.39 74.94 76.73H70.33a1.1 1.1 0 0 0-1.1 1.1V82c-6.88 1.61-11.81 5.95-13.13 12a1.1 1.1 0 0 0 1.07 1.33H93.66A1.1 1.1 0 0 0 94.74 94C93.41 87.94 88.48 83.61 81.61 82Zm-7-56L75.79 27l-1.37 1.48-1.14-1.06ZM62 63.68l-21.91-20A18.55 18.55 0 0 1 53 38.11a14.41 14.41 0 0 1 4.32 0.66h0a13.26 13.26 0 0 1 2.57 1.12h0c0.37 0.21 0.72 0.44 1.06 0.68l0.12 0.08a12.42 12.42 0 0 1 1 0.85 12.75 12.75 0 0 1 0.92 0.94c0.16 0.19 0.32 0.38 0.47 0.58l0.31 0.4q0.29 0.4 0.55 0.83l0.11 0.17c0.19 0.33 0.38 0.67 0.55 1C67.64 50.88 66.59 58.09 62 63.68Zm3.21-22L65 41.34a14.86 14.86 0 0 0-1.36-1.44 15.13 15.13 0 0 0-1.8-1.39l-0.18-0.12a15 15 0 0 0-2.07-1.11l9.72-10.49L71 28.33h0l2.75 2.55h0l2.1 1.95L66.28 43.14 66.21 43A14.82 14.82 0 0 0 65.22 41.63Zm6.21 37.3h8v2.65a28.08 28.08 0 0 0-8 0V78.93ZM58.62 93.09c2-5.88 8.45-9.61 16.8-9.61s14.77 3.73 16.8 9.61H58.62Z" fill="#ffd700" data-fill-palette-color="accent"></path><path class="cls-1" d="M11.45 82.87a5.94 5.94 0 0 0 0 11.88H51.21v-1.5H11.45a4.44 4.44 0 0 1 0-8.88H51.21v-1.5H11.45Z" fill="#ffd700" data-fill-palette-color="accent"></path><rect class="cls-1" x="9.92" y="85.33" width="41.28" height="1.5" fill="#ffd700" data-fill-palette-color="accent"></rect><rect class="cls-1" x="9.92" y="87.99" width="41.28" height="1.5" fill="#ffd700" data-fill-palette-color="accent"></rect><rect class="cls-1" x="9.92" y="90.84" width="41.28" height="1.5" fill="#ffd700" data-fill-palette-color="accent"></rect><path class="cls-1" d="M48.32 74.79a6 6 0 0 0-5.94-5.94H12.12v1.5H42.38a4.44 4.44 0 1 1 0 8.88H12.12v1.5H42.38A6 6 0 0 0 48.32 74.79Z" fill="#ffd700" data-fill-palette-color="accent"></path><rect class="cls-1" x="12.12" y="76.95" width="31.78" height="1.5" fill="#ffd700" data-fill-palette-color="accent"></rect><rect class="cls-1" x="12.12" y="74.11" width="31.78" height="1.5" fill="#ffd700" data-fill-palette-color="accent"></rect><rect class="cls-1" x="12.12" y="71.26" width="31.78" height="1.5" fill="#ffd700" data-fill-palette-color="accent"></rect></svg></g></svg></g></svg></g><defs></defs></svg><rect width="395.52" height="99.73823306591905" fill="none" stroke="none" visibility="hidden"></rect></g></svg></g></svg>